<?xml version="1.0" encoding="UTF-8"?>
<svg width="109px" height="109px" viewBox="0 0 109 109" version="1.1" xmlns="http://www.w3.org/2000/svg" xmlns:xlink="http://www.w3.org/1999/xlink">
    <!-- Generator: Sketch 52.2 (67145) - http://www.bohemiancoding.com/sketch -->
    <title>Elements_Add_Pic</title>
    <desc>Created with Sketch.</desc>
    <g id="UI-Elements" stroke="none" stroke-width="1" fill="none" fill-rule="evenodd">
        <g id="Artboard" transform="translate(-1417.000000, -1455.000000)">
            <g id="Elements_Add_Pic" transform="translate(1417.000000, 1455.000000)">
                <g id="Buttons/AddProfilePic" transform="translate(10.000000, 10.000000)">
                    <g id="Group-2">
                        <path d="M88.875,44.4366 C88.875,68.9796 68.9796,88.8732 44.4384,88.8732 C19.8954,88.8732 0,68.9796 0,44.4366 C0,19.8936 19.8954,0 44.4384,0 C68.9796,0 88.875,19.8936 88.875,44.4366" id="Fill-1" fill="#FEF6F7"></path>
                        <g id="Group-5" transform="translate(24.000000, 21.000000)" fill="#F65A5C">
                            <path d="M20,2.10526316 C24.0631579,2.10526316 27.3684211,5.41052632 27.3684211,9.47368421 C27.3684211,13.5368421 24.0631579,16.8421053 20,16.8421053 C15.9368421,16.8421053 12.6315789,13.5368421 12.6315789,9.47368421 C12.6315789,5.41052632 15.9368421,2.10526316 20,2.10526316 M20,18.9473684 C25.2231579,18.9473684 29.4736842,14.6968421 29.4736842,9.47368421 C29.4736842,4.25052632 25.2231579,0 20,0 C14.7768421,0 10.5263158,4.25052632 10.5263158,9.47368421 C10.5263158,14.6968421 14.7768421,18.9473684 20,18.9473684" id="Fill-1"></path>
                            <path d="M20,25.2631579 C8.97263158,25.2631579 0,34.2357895 0,45.2631579 C0,45.8421053 0.471578947,46.3157895 1.05263158,46.3157895 C1.63368421,46.3157895 2.10526316,45.8421053 2.10526316,45.2631579 C2.10526316,35.3957895 10.1326316,27.3684211 20,27.3684211 C29.8673684,27.3684211 37.8947368,35.3957895 37.8947368,45.2631579 C37.8947368,45.8421053 38.3684211,46.3157895 38.9473684,46.3157895 C39.5263158,46.3157895 40,45.8421053 40,45.2631579 C40,34.2357895 31.0273684,25.2631579 20,25.2631579" id="Fill-3"></path>
                        </g>
                        <g id="Icons/Red/Add" transform="translate(63.000000, 40.000000)" fill="#F65A5C">
                            <g id="Group" transform="translate(2.076923, 2.076923)">
                                <rect id="Rectangle-48" fill-rule="nonzero" x="0" y="6.02006689" width="13.8461538" height="1.80602007" rx="0.903010033"></rect>
                                <path d="M0.903010033,6.02006689 L12.9431438,6.02006689 C13.4418625,6.02006689 13.8461538,6.42435825 13.8461538,6.92307692 L13.8461538,6.92307692 C13.8461538,7.42179559 13.4418625,7.82608696 12.9431438,7.82608696 L0.903010033,7.82608696 C0.404291363,7.82608696 -8.27102997e-16,7.42179559 -8.8817842e-16,6.92307692 L-8.8817842e-16,6.92307692 C-9.49253842e-16,6.42435825 0.404291363,6.02006689 0.903010033,6.02006689 Z" id="Rectangle-48" fill-rule="nonzero" transform="translate(6.923077, 6.923077) rotate(-270.000000) translate(-6.923077, -6.923077) "></path>
                            </g>
                        </g>
                    </g>
                </g>
            </g>
        </g>
    </g>
</svg>