<?xml version="1.0" encoding="UTF-8"?>
<svg width="90px" height="70px" viewBox="0 0 90 70" version="1.1" xmlns="http://www.w3.org/2000/svg" xmlns:xlink="http://www.w3.org/1999/xlink">
    <!-- Generator: Sketch 52.2 (67145) - http://www.bohemiancoding.com/sketch -->
    <title>Graphic_Black_AccessAlbum</title>
    <desc>Created with Sketch.</desc>
    <g id="UI-Elements" stroke="none" stroke-width="1" fill="none" fill-rule="evenodd">
        <g id="Artboard" transform="translate(-586.000000, -1743.000000)">
            <g id="Graphic/Black/AccessPhotos" transform="translate(586.000000, 1733.000000)">
                <path d="M47.2181557,33.5262957 C47.2710246,33.5262957 47.3263525,33.5226072 47.3814344,33.5152301 L48.470041,33.3676892 C48.7914344,33.3244105 49.0766803,33.158181 49.2726639,32.9002301 C49.4686475,32.6422793 49.5525,32.3240826 49.5084836,32.0044105 C49.4652049,31.6842465 49.2992213,31.3999842 49.0415164,31.2035088 C48.7835656,31.0067875 48.4656148,30.9217055 48.1452049,30.9659678 L47.0565984,31.1135088 C46.7352049,31.1570334 46.449959,31.323017 46.2537295,31.5809678 C46.0579918,31.8389187 45.9741393,32.1571154 46.0179098,32.4767875 C46.0988115,33.0750662 46.6147131,33.5262957 47.2181557,33.5262957" id="Fill-1" fill="#4B4B4B"></path>
                <path d="M42.6229918,43.5034596 L42.6227459,43.5017383 C42.5327459,42.8446892 41.9226639,42.3787055 41.2597131,42.4640334 L40.1706148,42.6110826 C39.8504508,42.6543613 39.5656967,42.8203449 39.3694672,43.0780498 C39.1732377,43.3357547 39.0888934,43.6541974 39.132418,43.9746072 C39.2135656,44.57264 39.7294672,45.0238695 40.3326639,45.0238695 C40.3852869,45.0238695 40.4403689,45.020181 40.4956967,45.0130498 L41.5845492,44.8660006 C42.2452869,44.7764924 42.7112705,44.165181 42.6229918,43.5034596" id="Fill-3" fill="#4B4B4B"></path>
                <path d="M55.0251639,49.0739433 L53.9365574,49.2207465 C53.6154098,49.2642711 53.3306557,49.4300088 53.1344262,49.6877137 C52.9384426,49.9451728 52.8543443,50.2636154 52.8981148,50.5842711 C52.9790164,51.1825498 53.494918,51.6337793 54.0981148,51.6337793 C54.1507377,51.6337793 54.2058197,51.6300908 54.2611475,51.6229596 L55.3492623,51.4759105 C55.4579508,51.4611564 55.5681148,51.4279596 55.6863934,51.3743531 C55.8754918,51.2887793 56.0316393,51.1658285 56.1511475,51.0091892 C56.3471311,50.7514842 56.4312295,50.4330416 56.3877049,50.1123859 C56.3318852,49.7005006 56.07,49.3503367 55.6871311,49.1750088 C55.4771311,49.0791072 55.2484426,49.0434515 55.0251639,49.0739433" id="Fill-5" fill="#4B4B4B"></path>
                <path d="M58.6098443,47.8822547 C58.6400902,47.8822547 58.6723033,47.8810252 58.7072213,47.8785662 C59.0303361,47.8527465 59.3236967,47.7029924 59.5334508,47.4563531 C59.7432049,47.2097137 59.8445164,46.8961892 59.8186967,46.5735662 L59.7309098,45.4795498 C59.705582,45.1549596 59.5563197,44.8608613 59.3111557,44.6513531 C59.0655,44.4420908 58.7509918,44.3417629 58.4259098,44.3673367 C58.103041,44.3929105 57.8096803,44.5429105 57.5999262,44.7895498 C57.3901721,45.0359433 57.2888607,45.3494678 57.3146803,45.6723367 L57.4024672,46.7673367 C57.4526311,47.3924187 57.983041,47.8822547 58.6098443,47.8822547" id="Fill-7" fill="#4B4B4B"></path>
                <path d="M42.9714344,30.446058 C43.0019262,30.446058 43.0346311,30.4448285 43.0688115,30.4423695 C43.3919262,30.4165498 43.6852869,30.2665498 43.895041,30.0199105 C44.1047951,29.773517 44.2061066,29.4599924 44.1802869,29.1371236 L44.0925,28.0423695 C44.0661885,27.713599 43.9139754,27.4167957 43.6641393,27.2065498 C43.4167623,26.9982711 43.1032377,26.90114 42.7875,26.9308941 C42.4646311,26.9567137 42.1712705,27.1067137 41.9615164,27.3531072 C41.7517623,27.5997465 41.6504508,27.9132711 41.6762705,28.2358941 L41.7640574,29.33114 C41.8142213,29.9562219 42.3446311,30.446058 42.9714344,30.446058" id="Fill-9" fill="#4B4B4B"></path>
                <path d="M30.6447787,58.99214 C30.3993689,58.7838613 30.0853525,58.6842711 29.7627295,58.7108285 C29.4401066,58.7366482 29.1467459,58.8866482 28.9369918,59.1332875 C28.7269918,59.379681 28.6259262,59.6932055 28.6517459,60.0160744 L28.7395328,61.1113203 C28.7896967,61.7364023 29.3198607,62.2259924 29.9469098,62.2259924 C29.9774016,62.2259924 30.0098607,62.2247629 30.0442869,62.2223039 C30.3666639,62.1964842 30.6597787,62.0464842 30.8697787,61.7998449 C31.0800246,61.5532055 31.1813361,61.239681 31.1555164,60.9173039 L31.0677295,59.8223039 C31.0416639,59.4964842 30.891418,59.2016482 30.6447787,58.99214" id="Fill-11" fill="#4B4B4B"></path>
                <path d="M27.3808033,50.3275744 C27.1223607,50.1328203 26.8051475,50.0509351 26.4906393,50.0981482 L25.4037541,50.2454433 C25.0823607,50.2889678 24.7973607,50.4549515 24.6011311,50.7129023 C24.4051475,50.9706072 24.3212951,51.2888039 24.3650656,51.6087219 C24.4459672,52.2070006 24.9621148,52.6582301 25.5653115,52.6582301 C25.6181803,52.6582301 25.6735082,52.6545416 25.7285902,52.6471646 L26.816459,52.4996236 C27.1378525,52.4563449 27.4228525,52.2901154 27.6193279,52.0321646 C27.8150656,51.7742137 27.8986721,51.4557711 27.8549016,51.1356072 C27.8106393,50.811017 27.6419508,50.5240498 27.3808033,50.3275744" id="Fill-13" fill="#4B4B4B"></path>
                <path d="M30.432123,42.0233531 C30.8895,41.565976 31.4985984,41.3141728 32.1472869,41.3141728 C32.3575328,41.3141728 32.571959,41.3431892 32.7849098,41.4007301 C33.1928607,41.51114 33.5651557,41.7263039 33.8622049,42.0233531 C34.3146639,42.476058 34.5662213,43.0797465 34.5704016,43.7215498 L34.5704016,43.7545006 C34.5662213,44.3977793 34.3149098,45.000976 33.8624508,45.453681 C33.5646639,45.7514678 33.192123,45.9671236 32.7849098,46.0772875 C31.9136803,46.3123695 31.0380246,46.0603203 30.432123,45.453681 C29.4866311,44.5081892 29.4866311,42.9693367 30.432123,42.0233531 M32.1472869,48.5879433 C32.3737623,48.5879433 32.6152377,48.5677793 32.8862213,48.5267137 C33.6416311,48.4116318 34.3392541,48.1283531 34.959418,47.6845006 C35.1962213,47.5150744 35.3981066,47.3458941 35.5766311,47.1671236 C37.467123,45.2766318 37.467123,42.2001564 35.5766311,40.3089269 C35.3993361,40.1316318 35.1972049,39.9626974 34.9591721,39.7927793 C34.3476148,39.3567957 33.6310574,39.06614 32.8862213,38.9522875 C31.359418,38.718681 29.801877,39.225976 28.7184344,40.3089269 C26.8284344,42.1999105 26.8284344,45.2763859 28.7184344,47.1671236 C29.6346639,48.0833531 30.852123,48.5879433 32.1472869,48.5879433" id="Fill-15" fill="#F65A5C"></path>
                <path d="M24.4948279,62.4168613 L24.494582,62.4168613 C24.2499098,62.6620252 23.8950738,62.8024351 23.5208115,62.8024351 L23.4588443,62.7992383 C23.106959,62.7844842 22.7745,62.645058 22.5463033,62.4168613 C22.0095,61.8798121 22.0095,61.0058777 22.5465492,60.4680908 C22.7887623,60.2256318 23.1128607,60.0837465 23.4583525,60.0689924 L23.5203197,60.0655498 C23.8891721,60.0657957 24.2351557,60.2089105 24.494582,60.4680908 C25.0316311,61.0058777 25.0316311,61.8798121 24.4948279,62.4168613 M23.5205656,57.6429269 C23.501877,57.6429269 23.4831885,57.6439105 23.4435984,57.6463695 C22.6835164,57.6616154 21.9561393,57.8984187 21.3396639,58.3319433 C21.1481066,58.4669433 20.982123,58.60514 20.8326148,58.7546482 C19.3508115,60.2369433 19.3508115,62.6482547 20.8326148,64.1305498 C20.9828607,64.2807957 21.1488443,64.4189924 21.339418,64.5532547 C21.9563852,64.9880088 22.6840082,65.2255498 23.4645,65.2420252 C23.4831885,65.2432547 23.5016311,65.2444842 23.5205656,65.2444842 C24.5356475,65.2444842 25.4902377,64.8488285 26.2082705,64.1305498 C27.6903197,62.6485006 27.6903197,60.2369433 26.2085164,58.7546482 C25.4917131,58.0378449 24.537123,57.6429269 23.5205656,57.6429269" id="Fill-17" fill="#F65A5C"></path>
                <path d="M46.551418,51.6200088 C46.551418,51.9891072 46.4080574,52.3353367 46.1476475,52.5947629 C46.1105164,52.6318941 46.071418,52.6658285 46.0310902,52.6977957 C45.5478934,53.0828777 44.8613361,53.0964023 44.3621557,52.7317301 C44.2960082,52.6837793 44.2443689,52.6402547 44.1993689,52.5952547 C43.6623197,52.0574678 43.6620738,51.1835334 44.198877,50.6467301 C44.2428934,50.6027137 44.2952705,50.5594351 44.3594508,50.5139433 C44.8379754,50.1738613 45.5766639,50.1903367 46.0330574,50.5461564 C46.0728934,50.5773859 46.1115,50.6105826 46.1478934,50.6467301 C46.4080574,50.9064023 46.551418,51.25214 46.551418,51.6200088 M46.253877,47.9759924 C45.576418,47.7758285 44.8537131,47.7662383 44.1511721,47.9612383 C43.5224016,48.1360744 42.9462541,48.4722219 42.4854344,48.9335334 C41.0033852,50.4155826 41.0033852,52.82714 42.4854344,54.3091892 C42.9460082,54.7700088 43.5221557,55.1054187 44.151418,55.2792711 C44.4895328,55.3729596 44.8333033,55.4204187 45.1733852,55.4204187 C45.5387951,55.4204187 45.9022377,55.3680416 46.2536311,55.264517 C46.8573197,55.086976 47.4130574,54.7564842 47.8610902,54.3091892 C48.5796148,53.5909105 48.9750246,52.6363203 48.9750246,51.6214842 C48.9750246,50.6064023 48.5796148,49.652058 47.8613361,48.9337793 C47.4133033,48.4852547 46.8575656,48.1540252 46.253877,47.9759924" id="Fill-19" fill="#F65A5C"></path>
                <path d="M36.1627869,55.2328941 C36.1632787,55.7549433 35.9604098,56.245517 35.5913115,56.6138777 L35.5908197,56.6143695 C35.3687705,56.8366646 35.0786066,57.0011728 34.7520492,57.0896974 C34.1277049,57.2593695 33.472377,57.1258449 32.9987705,56.7619105 C32.9289344,56.7085498 32.8743443,56.6615826 32.8268852,56.6141236 C32.4577869,56.2450252 32.2544262,55.7544515 32.2544262,55.2324023 C32.2544262,54.7103531 32.4577869,54.2192875 32.8271311,53.8496974 C32.8822131,53.7943695 32.9409836,53.7444515 33.0014754,53.6965006 C33.3486885,53.4223203 33.7659836,53.2774842 34.2086066,53.2774842 C34.3895902,53.2774842 34.5710656,53.303058 34.7488525,53.3537137 C35.0658197,53.4444515 35.3567213,53.6158449 35.5903279,53.8496974 C35.9594262,54.2187957 36.1627869,54.7101072 36.1627869,55.2328941 M34.8518852,50.905517 C34.6155738,50.8708449 34.4053279,50.8538777 34.2093443,50.8538777 C33.7239344,50.8538777 33.2390164,50.9369924 32.7681148,51.1007629 C32.1381148,51.3201072 31.5816393,51.6685498 31.1139344,52.1362547 C30.2869672,52.9634678 29.8315574,54.0628941 29.8315574,55.2324023 C29.8315574,56.4014187 30.2869672,57.500599 31.1136885,58.3273203 C31.5816393,58.7957629 32.1381148,59.1444515 32.7681148,59.3637957 C33.2387705,59.5278121 33.7236885,59.6109269 34.2093443,59.6109269 C34.4068033,59.6109269 34.6111475,59.5944515 34.8518852,59.5592875 C35.7897541,59.4218285 36.6378689,58.9959269 37.3045082,58.3278121 C38.1317213,57.5018285 38.5871311,56.4024023 38.5871311,55.2324023 C38.5871311,54.0628941 38.1317213,52.9634678 37.305,52.1365006 C36.637623,51.4686318 35.7895082,51.0427301 34.8518852,50.905517" id="Fill-21" fill="#F65A5C"></path>
                <path d="M48.0958525,39.5759924 C48.6860164,38.9858285 49.4709344,38.6607465 50.3057705,38.6607465 C51.1410984,38.6607465 51.9257705,38.9858285 52.5154426,39.5759924 C53.1060984,40.1664023 53.4314262,40.9513203 53.4314262,41.7856646 C53.4314262,42.6207465 53.1060984,43.4054187 52.5154426,43.9955826 C51.9252787,44.5857465 51.1403607,44.9105826 50.3057705,44.9105826 C49.4709344,44.9105826 48.6860164,44.5857465 48.0958525,43.9955826 C46.8776557,42.7773859 46.8776557,40.7949269 48.0958525,39.5759924 M46.3824098,45.7090252 C47.4301967,46.7573039 48.8234754,47.3344351 50.3057705,47.3344351 C51.7885574,47.3344351 53.182082,46.7573039 54.2291311,45.7090252 C55.1564262,44.781976 55.7099508,43.6043531 55.8297049,42.3032875 C55.8466721,42.1186154 55.8550328,41.9491892 55.8550328,41.7856646 C55.8550328,41.6218941 55.8466721,41.4524678 55.8297049,41.2675498 C55.7099508,39.9657465 55.1564262,38.7881236 54.229377,37.8623039 C53.1818361,36.814517 51.7885574,36.23714 50.3057705,36.23714 C48.8234754,36.23714 47.4301967,36.814517 46.3824098,37.8623039 C46.2481475,37.9963203 46.1173279,38.14214 45.9931475,38.2953367 C44.3549508,40.3176318 44.3549508,43.2532055 45.9931475,45.2759924 C46.1178197,45.429681 46.2486393,45.5755006 46.3824098,45.7090252" id="Fill-23" fill="#F65A5C"></path>
                <path d="M11.0969016,74.0663285 C11.7748525,74.0663285 12.3264098,73.5147711 12.3264098,72.8368203 L12.3264098,30.3233777 C12.3264098,29.6454269 11.7748525,29.0938695 11.0969016,29.0938695 C10.4189508,29.0938695 9.86739344,29.6454269 9.86739344,30.3233777 L9.86739344,72.8368203 C9.86739344,73.5147711 10.4189508,74.0663285 11.0969016,74.0663285" id="Fill-25" fill="#4B4B4B"></path>
                <path d="M35.4111639,34.0415088 C35.4116557,33.5194596 35.6152623,33.0281482 35.9846066,32.6583121 C36.3527213,32.2901974 36.843541,32.0875744 37.3668197,32.0875744 C37.8896066,32.0875744 38.3801803,32.2904433 38.748541,32.658558 C39.1176393,33.0276564 39.3207541,33.5187219 39.3207541,34.041017 C39.3207541,34.5630662 39.1176393,35.0538859 38.7482951,35.4229842 C38.3804262,35.7913449 37.8898525,35.9939678 37.366082,35.9939678 C36.8430492,35.9937219 36.3519836,35.791099 35.983623,35.4229842 C35.6145246,35.0538859 35.4111639,34.5630662 35.4111639,34.0415088 M34.270918,30.9448695 C33.4437049,31.771099 32.9880492,32.8705252 32.9880492,34.041017 C32.9880492,35.2100334 33.4437049,36.3094596 34.2706721,37.1364269 C34.3828033,37.248558 34.5116557,37.3616728 34.6641148,37.4819187 C35.4414098,38.0939678 36.376082,38.4173285 37.3675574,38.4173285 C38.5390328,38.4173285 39.638459,37.9624105 40.4624754,37.1366728 C41.2896885,36.3106892 41.7453443,35.211017 41.7453443,34.041017 C41.7453443,32.8712629 41.2899344,31.7718367 40.4627213,30.9451154 C38.8973115,29.3801974 36.4046066,29.2316728 34.6643607,30.5996236 C34.5131311,30.7183941 34.3842787,30.8312629 34.270918,30.9448695" id="Fill-27" fill="#F65A5C"></path>
                <path d="M75.3448279,23.7320088 L12.5553197,23.7320088 L14.1180246,13.22414 L87.2142541,24.0944678 L79.7295,74.4236482 L79.0333525,74.3201236 L79.0333525,27.4205334 C79.0333525,25.386681 77.3786803,23.7320088 75.3448279,23.7320088 Z M23.694418,41.6186482 L23.694418,30.3234023 C23.694418,29.6454515 23.1426148,29.0938941 22.4649098,29.0938941 C21.786959,29.0938941 21.2354016,29.6454515 21.2354016,30.3234023 L21.2354016,47.8564351 L13.9749098,66.2744678 C13.359418,67.8354515 13.7199098,69.5356154 14.9152377,70.7112711 C15.6940082,71.4779924 16.7108115,71.9004515 17.7782705,71.9004515 C18.3209754,71.9004515 18.8555656,71.7927465 19.367041,71.5807793 L21.2354016,70.8096318 L21.2354016,72.8368449 C21.2354016,73.5147957 21.786959,74.0663531 22.4649098,74.0663531 C23.1426148,74.0663531 23.694418,73.5147957 23.694418,72.8368449 L23.694418,69.7945498 L32.6031885,66.1170908 L32.6031885,72.8368449 C32.6031885,73.5147957 33.1547459,74.0663531 33.8326967,74.0663531 C34.5106475,74.0663531 35.0622049,73.5147957 35.0622049,72.8368449 L35.0622049,65.1020088 L43.9712213,61.4245498 L43.9712213,72.8368449 C43.9712213,73.5147957 44.5227787,74.0663531 45.2007295,74.0663531 C45.8784344,74.0663531 46.4302377,73.5147957 46.4302377,72.8368449 L46.4302377,60.4094678 L55.3390082,56.7320088 L55.3390082,72.8368449 C55.3390082,73.5147957 55.8905656,74.0663531 56.5685164,74.0663531 C57.2464672,74.0663531 57.7980246,73.5147957 57.7980246,72.8368449 L57.7980246,55.7169269 L66.707041,52.0392219 L66.707041,72.8368449 C66.707041,73.5147957 67.2585984,74.0663531 67.9365492,74.0663531 C68.6142541,74.0663531 69.1660574,73.5147957 69.1660574,72.8368449 L69.1660574,51.02414 L70.7698279,50.3621728 C71.1927787,50.1870908 71.4782705,49.7946318 71.5149098,49.3370088 C71.5276967,49.1756974 71.7942541,45.3268449 69.1660574,39.4950416 L69.1660574,30.3234023 C69.1660574,29.6454515 68.6142541,29.0938941 67.9365492,29.0938941 C67.2585984,29.0938941 66.707041,29.6454515 66.707041,30.3234023 L66.707041,34.9274187 C64.8610574,31.9795498 62.5210574,29.0461892 59.736959,26.1910252 L75.3448279,26.1910252 C76.0227787,26.1910252 76.5743361,26.7425826 76.5743361,27.4205334 L76.5743361,75.7397137 C76.5743361,75.8727465 76.5517131,76.0062711 76.5072049,76.136599 C76.3363033,76.6345498 75.8690902,76.9692219 75.3448279,76.9692219 L3.68859836,76.9692219 C3.01064754,76.9692219 2.45909016,76.4174187 2.45909016,75.7397137 L2.45909016,27.4205334 C2.45909016,26.7425826 3.01064754,26.1910252 3.68859836,26.1910252 L29.7760574,26.1910252 L23.694418,41.6186482 Z M69.0876148,48.4347957 L65.0307295,50.1096318 C64.8315492,47.6255334 63.6849098,41.7794678 57.7424508,34.5059433 C57.1151557,33.7379924 56.4499918,32.9727465 55.7656475,32.2311072 C55.2453197,31.6675006 54.7422049,31.1432383 54.2277787,30.6288121 C52.5802377,28.9812711 50.8854836,27.4911072 49.1813852,26.1910252 L56.2835164,26.1910252 C56.7276148,26.611517 57.0999098,26.9729924 57.4500738,27.3231564 C61.6013852,31.4749596 64.7238443,35.7647137 66.7299098,40.0734023 C66.9625328,40.5730744 67.1467131,40.9896318 67.3095,41.3843039 C67.9099918,42.8395498 68.3710574,44.2795498 68.6799098,45.663976 C68.9540902,46.8925006 69.0541721,47.8269269 69.0876148,48.4347957 Z M37.0016311,26.1910252 L44.9159754,26.1910252 C47.4836803,27.7977465 50.0398279,29.8670088 52.5148279,32.3417629 C53.5399918,33.3671728 54.509582,34.4218449 55.3967951,35.4760252 C56.0926967,36.3037301 56.7509754,37.146681 57.3526967,37.9817629 C62.3580246,44.9284842 62.6447459,50.0211072 62.6447459,51.093976 L18.4424508,69.3411072 C17.6813852,69.6546318 16.9997459,69.3625006 16.6161393,68.9835662 C16.2317951,68.6051236 15.9285984,67.9281564 16.2305656,67.1629105 L32.382123,26.1910252 L34.5701557,26.1910252 L34.6048279,26.6238121 C34.6549918,27.2488941 35.1854016,27.7387301 35.8122049,27.7387301 C35.8426967,27.7387301 35.8754016,27.7375006 35.909582,27.7350416 C36.2326967,27.7092219 36.5260574,27.5592219 36.7358115,27.3125826 C36.9455656,27.0661892 37.046877,26.7526646 37.0208115,26.4297957 L37.0016311,26.1910252 Z M88.5487623,21.8068449 L13.5079426,10.6473367 C13.1186803,10.5885662 12.7289262,10.6854515 12.4112213,10.9210252 C12.0949918,11.1556154 11.8886803,11.4993859 11.8304016,11.8893859 L10.0692541,23.7320088 L3.68859836,23.7320088 C1.6547459,23.7320088 7.37704924e-05,25.386681 7.37704924e-05,27.4205334 L7.37704924e-05,75.7397137 C7.37704924e-05,77.7735662 1.6547459,79.4282383 3.68859836,79.4282383 L75.3448279,79.4282383 C76.9699918,79.4282383 78.4215492,78.3288121 78.8796639,76.7833203 L80.3405656,77.0004515 C81.1522869,77.1238941 81.8998279,76.5467629 82.016877,75.7581564 L89.7913033,23.4829105 C89.9103197,22.6788121 89.3531066,21.9270908 88.5487623,21.8068449 Z" id="Fill-29" fill="#4B4B4B"></path>
            </g>
        </g>
    </g>
</svg>