<?xml version="1.0" encoding="UTF-8"?>
<svg width="60px" height="60px" viewBox="0 0 60 60" version="1.1" xmlns="http://www.w3.org/2000/svg" xmlns:xlink="http://www.w3.org/1999/xlink">
    <!-- Generator: Sketch 52.2 (67145) - http://www.bohemiancoding.com/sketch -->
    <title>Graphic_Black_HeatUp</title>
    <desc>Created with Sketch.</desc>
    <g id="UI-Elements" stroke="none" stroke-width="1" fill="none" fill-rule="evenodd">
        <g id="Artboard" transform="translate(-1284.000000, -681.000000)">
            <g id="Graphic/Black/Heat-Up" transform="translate(1284.000000, 681.000000)">
                <g id="Group" transform="translate(0.000000, 0.461538)">
                    <path d="M20.6240194,13.1292427 C20.6240194,13.5680777 20.9797476,13.9236117 21.4183883,13.9236117 C21.8570291,13.9236117 22.2127573,13.5680777 22.2127573,13.1292427 C22.2127573,12.3865243 22.4921748,12.0476893 22.8785825,11.5787573 C23.3370291,11.0226408 23.9073204,10.3306019 23.9073204,9.01739806 C23.9073204,7.70438835 23.3370291,7.01234951 22.8785825,6.45623301 C22.4919806,5.98730097 22.2127573,5.64846602 22.2127573,4.9055534 C22.2127573,4.16302913 22.4921748,3.82438835 22.8785825,3.35545631 C23.3370291,2.79933981 23.9073204,2.10749515 23.9073204,0.794485437 C23.9073204,0.35584466 23.5515922,0.000116504854 23.1129515,0.000116504854 C22.6743107,0.000116504854 22.3185825,0.35584466 22.3185825,0.794485437 C22.3185825,1.53700971 22.0393592,1.87584466 21.6527573,2.3447767 C21.1945049,2.90069903 20.6240194,3.59273786 20.6240194,4.9055534 C20.6240194,6.21875728 21.1945049,6.91079612 21.6527573,7.46691262 C22.0393592,7.93584466 22.3185825,8.27467961 22.3185825,9.01739806 C22.3185825,9.7601165 22.0393592,10.0991456 21.6525631,10.5682718 C21.1945049,11.1241942 20.6240194,11.8160388 20.6240194,13.1292427" id="Fill-1" fill="#F65A5C"></path>
                    <path d="M28.3199806,13.1292427 C28.3199806,13.5680777 28.6757087,13.9236117 29.1143495,13.9236117 C29.5529903,13.9236117 29.9087184,13.5680777 29.9087184,13.1292427 C29.9087184,12.3865243 30.1881359,12.0476893 30.5745437,11.5787573 C31.0329903,11.0226408 31.6032816,10.3306019 31.6032816,9.01739806 C31.6032816,7.70438835 31.0329903,7.01234951 30.5745437,6.45623301 C30.1879417,5.98730097 29.9087184,5.64846602 29.9087184,4.9055534 C29.9087184,4.16302913 30.1881359,3.82438835 30.5745437,3.35545631 C31.0329903,2.79933981 31.6032816,2.10749515 31.6032816,0.794485437 C31.6032816,0.35584466 31.2475534,0.000116504854 30.8089126,0.000116504854 C30.3702718,0.000116504854 30.0145437,0.35584466 30.0145437,0.794485437 C30.0145437,1.53700971 29.7351262,1.87584466 29.3487184,2.3447767 C28.890466,2.90069903 28.3199806,3.59273786 28.3199806,4.9055534 C28.3199806,6.21875728 28.890466,6.91079612 29.3487184,7.46691262 C29.7353204,7.93584466 30.0145437,8.27467961 30.0145437,9.01739806 C30.0145437,9.7601165 29.7351262,10.0991456 29.3485243,10.5682718 C28.8902718,11.1241942 28.3199806,11.8160388 28.3199806,13.1292427" id="Fill-3" fill="#F65A5C"></path>
                    <path d="M36.015767,13.1292427 C36.015767,13.5680777 36.3714951,13.9236117 36.8101359,13.9236117 C37.2487767,13.9236117 37.6045049,13.5680777 37.6045049,13.1292427 C37.6045049,12.3865243 37.8839223,12.0476893 38.2703301,11.5787573 C38.7287767,11.0226408 39.299068,10.3306019 39.299068,9.01739806 C39.299068,7.70438835 38.7287767,7.01234951 38.2703301,6.45623301 C37.8837282,5.98730097 37.6045049,5.64846602 37.6045049,4.9055534 C37.6045049,4.16302913 37.8839223,3.82438835 38.2703301,3.35545631 C38.7287767,2.79933981 39.299068,2.10749515 39.299068,0.794485437 C39.299068,0.35584466 38.943534,0.000116504854 38.504699,0.000116504854 C38.0660583,0.000116504854 37.7103301,0.35584466 37.7103301,0.794485437 C37.7103301,1.53700971 37.4311068,1.87584466 37.0445049,2.3447767 C36.5862524,2.90069903 36.015767,3.59273786 36.015767,4.9055534 C36.015767,6.21875728 36.5862524,6.91079612 37.0445049,7.46691262 C37.4311068,7.93584466 37.7103301,8.27467961 37.7103301,9.01739806 C37.7103301,9.7601165 37.4311068,10.0991456 37.0443107,10.5682718 C36.5860583,11.1241942 36.015767,11.8160388 36.015767,13.1292427" id="Fill-5" fill="#F65A5C"></path>
                    <path d="M54.1848738,52.1792233 C54.1145825,52.4621359 53.8394369,53.4438835 53.2000194,54.4081553 C52.2223495,55.8817476 50.8681748,56.6291262 49.175165,56.6291262 L10.777301,56.6291262 C10.1048738,56.4469903 6.33031068,55.2421359 6.33031068,51.147767 C6.33031068,46.6083495 6.6732233,30.5699029 6.76234951,26.4875728 L8.16545631,26.4875728 L51.7576893,26.4875728 L54.1848738,26.4875728 L54.1848738,52.1792233 Z M58.5308932,24.5458252 C59.0672039,24.5458252 59.501767,24.9803883 59.501767,25.516699 C59.501767,26.0528155 59.0672039,26.4875728 58.5308932,26.4875728 L56.1266214,26.4875728 L56.1266214,52.3856311 L56.1075922,52.4801942 C56.0953592,52.5419417 55.792835,54.0118447 54.8180777,55.4813592 C53.4774951,57.5025243 51.526233,58.5708738 49.175165,58.5708738 L10.5487573,58.5708738 L10.4435146,58.5471845 C8.34914563,58.0757282 4.38856311,55.9225243 4.38856311,51.147767 C4.38856311,46.604466 4.72972816,30.6384466 4.82001942,26.4875728 L1.39225243,26.4875728 C0.855941748,26.4875728 0.421378641,26.0528155 0.421378641,25.516699 C0.421378641,24.9803883 0.855941748,24.5458252 1.39225243,24.5458252 L4.86293204,24.5458252 L8.16545631,24.5458252 L51.7576893,24.5458252 L56.1266214,24.5458252 L58.5308932,24.5458252 Z M59.9140583,14.2595922 C59.9866796,14.7908544 59.614835,15.2805631 59.083767,15.3531845 L1.10260194,23.2832816 C1.05794175,23.289301 1.0136699,23.2924078 0.969786408,23.2924078 C0.492116505,23.2924078 0.0756116505,22.9393981 0.00900970874,22.4527961 C-0.0636116505,21.921534 0.30823301,21.4320194 0.839495146,21.3592039 L58.820466,13.429301 C59.3517282,13.3564854 59.8414369,13.7285243 59.9140583,14.2595922 Z" id="Combined-Shape" fill="#4B4B4B"></path>
                </g>
            </g>
        </g>
    </g>
</svg>