<?xml version="1.0" encoding="UTF-8"?>
<svg width="60px" height="56px" viewBox="0 0 60 56" version="1.1" xmlns="http://www.w3.org/2000/svg" xmlns:xlink="http://www.w3.org/1999/xlink">
    <!-- Generator: Sketch 52.2 (67145) - http://www.bohemiancoding.com/sketch -->
    <title>Graphic_Black_Quit</title>
    <desc>Created with Sketch.</desc>
    <g id="UI-Elements" stroke="none" stroke-width="1" fill="none" fill-rule="evenodd">
        <g id="Artboard" transform="translate(-299.000000, -1754.000000)">
            <g id="Graphic/Black/Quit-Cooking" transform="translate(299.000000, 1752.000000)">
                <polygon id="Path" fill="#F65A5C" points="48.4102564 37.0769231 53.7435897 31.7435897 21.2307692 31.7435897 21.2307692 28.4615385 53.7435897 28.4615385 48.4102564 23.1282051 50.6666667 20.7692308 60 30.1025641 50.6666667 39.4358974"></polygon>
                <path d="M27.6516763,57.6110449 C12.4043931,57.6110449 -1.21931174e-14,45.2066518 -1.0658141e-14,29.9593686 C-9.12316465e-15,14.7124322 12.4043931,2.30769231 27.6516763,2.30769231 C32.206474,2.30769231 36.7224277,3.43936861 40.7108671,5.58029346 C41.3861272,5.94237439 41.6396532,6.78341485 41.2772254,7.45867497 C40.9147977,8.13393508 40.074104,8.38746109 39.3988439,8.02468653 C35.8123699,6.09983104 31.7500578,5.08225878 27.6516763,5.08225878 C13.9345665,5.08225878 2.77456647,16.2422588 2.77456647,29.9593686 C2.77456647,43.6764784 13.9345665,54.8364784 27.6516763,54.8364784 C41.3687861,54.8364784 52.5287861,43.6764784 52.5287861,29.9593686 C52.5287861,29.1932414 53.1499422,28.5720854 53.9160694,28.5720854 C54.6821965,28.5720854 55.3033526,29.1932414 55.3033526,29.9593686 C55.3033526,45.2066518 42.8989595,57.6110449 27.6516763,57.6110449" id="Fill-1" fill="#4B4B4B" transform="translate(27.651676, 29.959369) rotate(-330.000000) translate(-27.651676, -29.959369) "></path>
            </g>
        </g>
    </g>
</svg>