<?xml version="1.0" encoding="utf-8"?><!-- Generator: Adobe Illustrator 23.0.6, SVG Export Plug-In . SVG Version: 6.00 Build 0)  -->
<svg xmlns:xlink="http://www.w3.org/1999/xlink"
    style="enable-background:new 0 0 600 600;"
    id="Layer_1"
    version="1.1"
    viewBox="0 0 600 600"
    x="0px"
    xmlns="http://www.w3.org/2000/svg"
    y="0px"
    xml:space="preserve">
<style type="text/css">
	.st0{clip-path:url(#SVGID_2_);fill:#F15B5D;}
	.st1{clip-path:url(#SVGID_4_);fill:#F15B5D;}
	.st2{fill:#F15B5D;}
	.st3{fill:none;stroke:#F15B5D;stroke-width:42;stroke-linecap:round;stroke-miterlimit:10;}
</style>
    <g>
	<defs>
		<path
            d="M408.1,32.48h101.27c7.03,0,12.4,7.81,12.4,18.01c0,9.42-4.58,16.79-10.81,17.87l-1.59,0.14H408.1
			c-7.03,0-12.4-7.8-12.4-18.01c0-9.41,4.58-16.79,10.81-17.87L408.1,32.48h101.27H408.1z M410.47,104.52h60.52
			c8.37,0,14.76,7.81,14.76,18.01c0,9.48-5.52,16.88-13,17.89l-1.76,0.12h-60.52c-8.37,0-14.76-7.8-14.76-18.01
			c0-9.47,5.52-16.88,13-17.89L410.47,104.52h60.52H410.47z M509.37,176.56c7.03,0,12.4,7.8,12.4,18.01
			c0,10.21-5.37,18.01-12.4,18.01H408.1c-7.03,0-12.4-7.8-12.4-18.01c0-10.21,5.37-18.01,12.4-18.01H509.37z"
            id="SVGID_1_" />
	</defs>
        <clipPath id="SVGID_2_">
		<use
            style="overflow:visible;"
            xlink:href="#SVGID_1_" />
	</clipPath>
        <rect
            class="st0"
            height="360.2"
            width="306.17"
            x="305.65"
            y="-57.57" />
</g>
    <g>
	<defs>
		<path
            d="M277.36,560.42c-51.95,0-94.22-42.27-94.22-94.23c0-31.46,15.63-60.73,41.8-78.3l8.76-5.89V83.24
			c0-24.08,19.59-43.65,43.67-43.65c24.07,0,43.66,19.57,43.66,43.65v298.76l8.76,5.89c26.19,17.58,41.81,46.84,41.81,78.3
			C371.6,518.15,329.33,560.42,277.36,560.42z M360.62,361.44V83.24c0-45.9-37.35-83.24-83.26-83.24
			c-45.91,0-83.25,37.34-83.25,83.24v278.19c-31.84,25.31-50.56,63.73-50.56,104.75c0,73.78,60.03,133.81,133.81,133.81
			c73.79,0,133.82-60.03,133.82-133.81C411.19,425.17,392.47,386.75,360.62,361.44z"
            id="SVGID_3_" />
	</defs>
        <clipPath id="SVGID_4_">
		<use
            style="overflow:visible;"
            xlink:href="#SVGID_3_" />
	</clipPath>
        <rect
            class="st1"
            height="780.1"
            width="447.73"
            x="53.5"
            y="-90.05" />
</g>
    <circle
        class="st2"
        cx="277.37"
        cy="466.18"
        r="71.19" />
    <line
        class="st3"
        x1="277.37"
        x2="277.37"
        y1="466.18"
        y2="80.5" />
</svg>
