<?xml version="1.0" encoding="UTF-8"?>
<svg width="60px" height="56px" viewBox="0 0 60 56" version="1.1" xmlns="http://www.w3.org/2000/svg" xmlns:xlink="http://www.w3.org/1999/xlink">
    <!-- Generator: Sketch 52.2 (67145) - http://www.bohemiancoding.com/sketch -->
    <title>Graphic_Black_Added</title>
    <desc>Created with Sketch.</desc>
    <g id="UI-Elements" stroke="none" stroke-width="1" fill="none" fill-rule="evenodd">
        <g id="Artboard" transform="translate(-197.000000, -1753.000000)">
            <g id="Graphic/Black/Sent" transform="translate(197.000000, 1751.000000)">
                <path d="M27.6516763,57.6110449 C12.4043931,57.6110449 0,45.2066518 0,29.9593686 C0,14.7124322 12.4043931,2.30769231 27.6516763,2.30769231 C32.206474,2.30769231 36.7224277,3.43936861 40.7108671,5.58029346 C41.3861272,5.94237439 41.6396532,6.78341485 41.2772254,7.45867497 C40.9147977,8.13393508 40.074104,8.38746109 39.3988439,8.02468653 C35.8123699,6.09983104 31.7500578,5.08225878 27.6516763,5.08225878 C13.9345665,5.08225878 2.77456647,16.2422588 2.77456647,29.9593686 C2.77456647,43.6764784 13.9345665,54.8364784 27.6516763,54.8364784 C41.3687861,54.8364784 52.5287861,43.6764784 52.5287861,29.9593686 C52.5287861,29.1932414 53.1499422,28.5720854 53.9160694,28.5720854 C54.6821965,28.5720854 55.3033526,29.1932414 55.3033526,29.9593686 C55.3033526,45.2066518 42.8989595,57.6110449 27.6516763,57.6110449" id="Fill-1" fill="#4B4B4B"></path>
                <path d="M27.2982659,38.9199698 C26.9431214,38.9199698 26.5879769,38.784016 26.3171098,38.5134958 L13.8527168,26.0494495 C13.3109827,25.5077154 13.3109827,24.6292183 13.8527168,24.0874842 C14.3947977,23.5457501 15.272948,23.5457501 15.8150289,24.0874842 L27.3145665,35.5873686 L57.5781503,6.3222819 C58.1289017,5.78956514 59.007052,5.80447843 59.5397688,6.35488306 C60.0724855,6.9056345 60.0575723,7.78413161 59.5068208,8.31650156 L28.2627746,38.5297964 C27.9936416,38.7902588 27.6457803,38.9199698 27.2982659,38.9199698" id="Fill-3" fill="#F65A5C"></path>
            </g>
        </g>
    </g>
</svg>